<svg width="24" height="24" viewBox="0 0 24 24" fill="none" xmlns="http://www.w3.org/2000/svg">
<g clip-path="url(#clip0_735_9853)">
<path d="M12.0009 0.133789C5.44075 0.133789 0.12207 5.45247 0.12207 12.0126C0.12207 17.9407 4.4654 22.8543 10.1452 23.7489V15.4471H7.12771V12.0126H10.1452V9.39544C10.1452 6.41593 11.9189 4.77293 14.6311 4.77293C15.9308 4.77293 17.2922 5.00459 17.2922 5.00459V7.92588H15.7906C14.3175 7.92588 13.8565 8.84302 13.8565 9.78273V12.0102H17.1485L16.6222 15.4447H13.8565V23.7465C19.5364 22.8567 23.8797 17.9419 23.8797 12.0126C23.8797 5.45247 18.561 0.133789 12.0009 0.133789Z" fill="#052838"/>
</g>
<defs>
<clipPath id="clip0_735_9853">
<rect width="24" height="24" fill="white"/>
</clipPath>
</defs>
</svg>
