<svg width="24" height="24" viewBox="0 0 24 24" fill="none" xmlns="http://www.w3.org/2000/svg">
<path d="M22.6288 7.61007C22.6168 6.7103 22.4484 5.81949 22.131 4.97746C21.8558 4.26722 21.4355 3.62219 20.8969 3.08359C20.3583 2.54499 19.7133 2.12466 19.003 1.84946C18.1718 1.53744 17.2937 1.36872 16.4061 1.3505C15.2632 1.29941 14.9009 1.28516 11.9998 1.28516C9.09867 1.28516 8.72682 1.28516 7.59228 1.3505C6.70504 1.36886 5.82733 1.53757 4.9965 1.84946C4.28615 2.12447 3.64102 2.54473 3.1024 3.08335C2.56377 3.62198 2.14351 4.26711 1.8685 4.97746C1.55585 5.80803 1.38751 6.68594 1.37073 7.57324C1.31964 8.71728 1.3042 9.07962 1.3042 11.9807C1.3042 14.8818 1.3042 15.2525 1.37073 16.3882C1.38855 17.2768 1.55606 18.1536 1.8685 18.9864C2.14397 19.6965 2.56454 20.3414 3.10335 20.8798C3.64215 21.4182 4.28734 21.8382 4.99769 22.1132C5.82624 22.4377 6.7041 22.6185 7.59347 22.6478C8.73752 22.6989 9.09986 22.7143 12.001 22.7143C14.902 22.7143 15.2739 22.7143 16.4084 22.6478C17.296 22.6303 18.1742 22.462 19.0054 22.15C19.7155 21.8745 20.3603 21.454 20.8989 20.9155C21.4374 20.3769 21.8579 19.7321 22.1334 19.022C22.4458 18.1904 22.6134 17.3137 22.6312 16.4238C22.6823 15.281 22.6977 14.9186 22.6977 12.0164C22.6953 9.11526 22.6953 8.74698 22.6288 7.61007ZM11.9926 17.4669C8.95848 17.4669 6.50051 15.0089 6.50051 11.9748C6.50051 8.94063 8.95848 6.48266 11.9926 6.48266C13.4492 6.48266 14.8462 7.06129 15.8762 8.09126C16.9061 9.12124 17.4848 10.5182 17.4848 11.9748C17.4848 13.4314 16.9061 14.8283 15.8762 15.8583C14.8462 16.8883 13.4492 17.4669 11.9926 17.4669ZM17.7034 7.56017C17.5351 7.56033 17.3685 7.52731 17.2131 7.46301C17.0576 7.3987 16.9164 7.30437 16.7974 7.18542C16.6785 7.06647 16.5842 6.92523 16.5199 6.76978C16.4555 6.61433 16.4225 6.44773 16.4227 6.27951C16.4227 6.11141 16.4558 5.94495 16.5201 5.78965C16.5845 5.63434 16.6787 5.49323 16.7976 5.37436C16.9165 5.2555 17.0576 5.16121 17.2129 5.09688C17.3682 5.03255 17.5347 4.99944 17.7028 4.99944C17.8709 4.99944 18.0373 5.03255 18.1926 5.09688C18.3479 5.16121 18.489 5.2555 18.6079 5.37436C18.7268 5.49323 18.8211 5.63434 18.8854 5.78965C18.9497 5.94495 18.9828 6.11141 18.9828 6.27951C18.9828 6.98756 18.4102 7.56017 17.7034 7.56017Z" fill="#052838"/>
<path d="M11.9926 15.5423C13.9629 15.5423 15.5602 13.9451 15.5602 11.9748C15.5602 10.0045 13.9629 8.40722 11.9926 8.40722C10.0223 8.40722 8.42507 10.0045 8.42507 11.9748C8.42507 13.9451 10.0223 15.5423 11.9926 15.5423Z" fill="#052838"/>
</svg>
